HIERARCHY
ROOT joint_Root
{
	OFFSET 0.0 0.0 0.0
	CHANNELS 6 Xposition Yposition Zposition Zrotation Xrotation Yrotation 
	JOINT Hips
	{
		OFFSET 4.5925 91.4895 -427.239
		CHANNELS 6 Xposition Yposition Zposition Zrotation Xrotation Yrotation 
		JOINT Spine
		{
			OFFSET 15.7357 0.0 0.0
			CHANNELS 6 Xposition Yposition Zposition Zrotation Xrotation Yrotation 
			JOINT Chest
			{
				OFFSET 8.98455 -0.406207 0.0
				CHANNELS 6 Xposition Yposition Zposition Zrotation Xrotation Yrotation 
				JOINT Neck
				{
					OFFSET 16.3773 0.0 0.0
					CHANNELS 6 Xposition Yposition Zposition Zrotation Xrotation Yrotation 
					JOINT Head
					{
						OFFSET 6.45672 0.0 0.0
						CHANNELS 6 Xposition Yposition Zposition Zrotation Xrotation Yrotation 
						End Site
						{
							OFFSET 0.0 0.0 0.0
						}
					}
				}
				JOINT Shoulder_L
				{
					OFFSET 12.9942 -0.242716 4.98039
					CHANNELS 6 Xposition Yposition Zposition Zrotation Xrotation Yrotation 
					JOINT UpperArm_L
					{
						OFFSET 5.34809 0.0 0.0
						CHANNELS 6 Xposition Yposition Zposition Zrotation Xrotation Yrotation 
						JOINT LowerArm_L
						{
							OFFSET 24.3286 1.87007e-05 0.0
							CHANNELS 6 Xposition Yposition Zposition Zrotation Xrotation Yrotation 
							JOINT Hand_L
							{
								OFFSET 22.2916 0.0 0.0
								CHANNELS 6 Xposition Yposition Zposition Zrotation Xrotation Yrotation 
								End Site
								{
									OFFSET 0.0 0.0 0.0
								}
							}
						}
					}
				}
				JOINT Shoulder_R
				{
					OFFSET 12.9945 -0.242716 -4.98039
					CHANNELS 6 Xposition Yposition Zposition Zrotation Xrotation Yrotation 
					JOINT UpperArm_R
					{
						OFFSET -5.34813 0.0 0.0
						CHANNELS 6 Xposition Yposition Zposition Zrotation Xrotation Yrotation 
						JOINT LowerArm_R
						{
							OFFSET -24.3289 0.000322201 0.0
							CHANNELS 6 Xposition Yposition Zposition Zrotation Xrotation Yrotation 
							JOINT Hand_R
							{
								OFFSET -22.2915 -0.000108084 0.0
								CHANNELS 6 Xposition Yposition Zposition Zrotation Xrotation Yrotation 
								End Site
								{
									OFFSET 0.0 0.0 0.0
								}
							}
						}
					}
				}
			}
		}
		JOINT UpperLeg_L
		{
			OFFSET -2.19248 -6.46944 0.0
			CHANNELS 6 Xposition Yposition Zposition Zrotation Xrotation Yrotation 
			JOINT LowerLeg_L
			{
				OFFSET 39.0811 0.0 -1.23785e-05
				CHANNELS 6 Xposition Yposition Zposition Zrotation Xrotation Yrotation 
				JOINT Foot_L
				{
					OFFSET 40.9854 0.0 -1.26872e-05
					CHANNELS 6 Xposition Yposition Zposition Zrotation Xrotation Yrotation 
					JOINT Toes_L
					{
						OFFSET 11.7543 0.0 0.0
						CHANNELS 6 Xposition Yposition Zposition Zrotation Xrotation Yrotation 
						End Site
						{
							OFFSET 0.0 0.0 0.0
						}
					}
				}
			}
		}
		JOINT UpperLeg_R
		{
			OFFSET -2.19251 6.46944 0.0
			CHANNELS 6 Xposition Yposition Zposition Zrotation Xrotation Yrotation 
			JOINT LowerLeg_R
			{
				OFFSET -39.0811 -0.00228153 -0.0401928
				CHANNELS 6 Xposition Yposition Zposition Zrotation Xrotation Yrotation 
				JOINT Foot_R
				{
					OFFSET -40.9854 0.0 0.0
					CHANNELS 6 Xposition Yposition Zposition Zrotation Xrotation Yrotation 
					JOINT Toes_R
					{
						OFFSET -11.7543 0.0 0.0
						CHANNELS 6 Xposition Yposition Zposition Zrotation Xrotation Yrotation 
						End Site
						{
							OFFSET 0.0 0.0 0.0
						}
					}
				}
			}
		}
	}
}
MOTION
Frames:	6
Frame Time:	0.0333333
0.000000 0.000000 0.000000 0.000000 0.000000 -0.000000 4.319890 91.049700 0.702892 90.633200 -8.258520 10.470100 15.735700 0.000005 -0.000001 85.683700 82.726300 -86.822400 8.984550 -0.406207 -0.000000 6.731180 -1.081070 -2.211330 16.377300 -0.000001 -0.000001 16.109200 -2.177240 -2.272150 6.456720 -0.000001 -0.000000 8.333080 -1.579040 1.786530 12.994200 -0.242716 4.980390 -91.912800 6.500690 -73.565100 5.348090 -0.000007 -0.000001 -63.159800 33.593600 -13.848000 24.328600 0.000019 0.000005 12.899000 27.951800 -26.039100 22.291600 -0.000001 0.000005 6.625140 5.327890 -0.724362 12.994500 -0.242716 -4.980390 88.211200 11.146800 -80.823300 -5.348130 -0.000001 -0.000004 -61.166000 35.827600 -12.174800 -24.328900 0.000322 -0.000009 3.564640 8.517930 -22.816400 -22.291500 -0.000108 -0.000004 13.766600 5.433320 -4.053680 -2.192480 -6.469440 -0.000000 -178.174000 -19.220000 3.797930 39.081100 -0.000007 -0.000012 -0.071363 0.139259 27.132800 40.985400 -0.000006 -0.000013 3.941610 4.862800 -70.876900 11.754300 -0.000000 0.000003 -0.000202 -0.001865 -16.647900 -2.192510 6.469440 -0.000001 168.567000 18.717000 -176.959000 -39.081100 -0.002282 -0.040193 -0.222729 0.435462 27.432900 -40.985400 0.000008 0.000006 -0.290031 17.814800 -68.611600 -11.754300 -0.000006 -0.000006 -0.000602 -0.009588 -16.963300
0.000000 0.000000 0.000000 0.000000 0.000000 -0.000000 4.513130 90.992700 0.807806 90.743700 -8.341540 10.579500 15.735700 0.000005 -0.000001 85.497500 82.794100 -86.666200 8.984550 -0.406207 -0.000000 6.591900 -1.115870 -2.270440 16.377300 -0.000001 -0.000001 16.418700 -2.152960 -2.287530 6.456720 -0.000001 -0.000000 8.589680 -1.529460 1.614750 12.994200 -0.242716 4.980390 -91.922400 6.493810 -73.470400 5.348090 -0.000007 -0.000001 -61.827600 32.155000 -14.519400 24.328600 0.000019 0.000005 13.676700 27.976000 -27.417600 22.291600 -0.000001 0.000005 6.331310 5.335970 -0.960508 12.994500 -0.242716 -4.980390 88.192900 11.003100 -80.613800 -5.348130 -0.000001 -0.000004 -59.982500 34.932000 -12.999500 -24.328900 0.000322 -0.000009 3.779000 8.532720 -24.003200 -22.291500 -0.000108 -0.000004 13.815700 5.436460 -4.162100 -2.192480 -6.469440 -0.000000 -178.372000 -19.319400 3.898360 39.081100 -0.000007 -0.000012 -0.068701 0.133305 27.265200 40.985400 -0.000006 -0.000013 4.071580 4.793760 -71.049500 11.754300 -0.000000 0.000003 -0.000209 -0.001918 -16.649800 -2.192510 6.469440 -0.000001 168.373000 18.359300 -177.011000 -39.081100 -0.002282 -0.040193 -0.219322 0.423038 27.756500 -40.985400 0.000008 0.000006 -0.186507 17.579300 -68.869700 -11.754300 -0.000006 -0.000006 -0.000713 -0.011247 -17.030700
0.000000 0.000000 0.000000 0.000000 0.000000 -0.000000 4.711600 90.928800 0.892442 90.861600 -8.411300 10.788900 15.735700 0.000005 -0.000001 85.447500 82.838000 -86.657300 8.984550 -0.406207 -0.000000 6.503010 -1.120150 -2.353220 16.377300 -0.000001 -0.000001 16.781900 -2.197840 -2.349990 6.456720 -0.000001 -0.000000 8.902700 -1.526660 1.605400 12.994200 -0.242716 4.980390 -91.913700 6.445720 -73.425300 5.348090 -0.000007 -0.000001 -60.159800 29.927700 -15.656000 24.328600 0.000019 0.000005 14.376200 27.488200 -29.044100 22.291600 -0.000001 0.000005 6.039300 5.339380 -1.060850 12.994500 -0.242716 -4.980390 88.177700 10.848800 -80.405700 -5.348130 -0.000001 -0.000004 -58.305500 33.831100 -14.267300 -24.328900 0.000322 -0.000009 3.870680 8.137140 -25.554800 -22.291500 -0.000108 -0.000004 13.879000 5.440830 -4.314860 -2.192480 -6.469440 -0.000000 -178.554000 -19.394600 4.071360 39.081100 -0.000007 -0.000012 -0.069066 0.133047 27.434300 40.985400 -0.000006 -0.000013 4.202350 4.703190 -71.228600 11.754300 -0.000000 0.000003 -0.000221 -0.002013 -16.653300 -2.192510 6.469440 -0.000001 168.124000 18.028200 -176.991000 -39.081100 -0.002282 -0.040193 -0.215881 0.410431 28.104300 -40.985400 0.000008 0.000006 -0.171639 17.418600 -69.084400 -11.754300 -0.000006 -0.000006 -0.000560 -0.008938 -16.936900
0.000000 0.000000 0.000000 0.000000 0.000000 -0.000000 4.901140 90.879600 0.948983 90.954500 -8.405880 11.003500 15.735700 0.000005 -0.000001 85.270100 82.887700 -86.516900 8.984550 -0.406207 -0.000000 6.399800 -1.154620 -2.426360 16.377300 -0.000001 -0.000001 17.199900 -2.239400 -2.325100 6.456720 -0.000001 -0.000000 9.211370 -1.525630 1.554610 12.994200 -0.242716 4.980390 -91.894500 6.363740 -73.383400 5.348090 -0.000007 -0.000001 -58.065700 27.287400 -17.399000 24.328600 0.000019 0.000005 15.058500 26.744100 -30.873900 22.291600 -0.000001 0.000005 5.913410 5.339990 -1.079090 12.994500 -0.242716 -4.980390 88.180200 10.619000 -80.217700 -5.348130 -0.000001 -0.000004 -56.303700 32.450900 -15.994000 -24.328900 0.000322 -0.000009 4.027620 7.818100 -27.373500 -22.291500 -0.000108 -0.000004 13.914200 5.440940 -4.318700 -2.192480 -6.469440 -0.000000 -178.720000 -19.404900 4.246930 39.081100 -0.000007 -0.000012 -0.064725 0.124038 27.556600 40.985400 -0.000006 -0.000013 4.334690 4.640820 -71.357300 11.754300 -0.000000 0.000003 -0.000213 -0.001956 -16.651200 -2.192510 6.469440 -0.000001 167.891000 17.805000 -176.918000 -39.081100 -0.002282 -0.040193 -0.209856 0.394549 28.381100 -40.985400 0.000008 0.000006 -0.068484 17.249200 -69.282000 -11.754300 -0.000006 -0.000006 -0.000690 -0.010900 -17.016600
0.000000 0.000000 0.000000 0.000000 0.000000 -0.000000 5.076550 90.832700 0.980905 91.019000 -8.398090 11.194000 15.735700 0.000005 -0.000001 85.318100 82.962300 -86.594800 8.984550 -0.406207 -0.000000 6.252070 -1.128760 -2.488930 16.377300 -0.000001 -0.000001 17.679000 -2.308320 -2.317310 6.456720 -0.000001 -0.000000 9.565590 -1.591080 1.620820 12.994200 -0.242716 4.980390 -91.845800 6.214490 -73.421900 5.348090 -0.000007 -0.000001 -55.913200 24.053200 -19.580900 24.328600 0.000019 0.000005 15.793000 25.983200 -32.846300 22.291600 -0.000001 0.000005 6.190360 5.347120 -1.290710 12.994500 -0.242716 -4.980390 88.195300 10.387500 -80.087800 -5.348130 -0.000001 -0.000004 -54.067700 30.574700 -17.943800 -24.328900 0.000322 -0.000009 4.233730 7.525180 -29.484300 -22.291500 -0.000108 -0.000004 13.948300 5.441970 -4.354580 -2.192480 -6.469440 -0.000000 -178.834000 -19.471300 4.383110 39.081100 -0.000007 -0.000012 -0.061445 0.117028 27.701500 40.985400 -0.000006 -0.000013 4.472270 4.641360 -71.484500 11.754300 -0.000000 0.000003 -0.000204 -0.001880 -16.648400 -2.192510 6.469440 -0.000001 167.703000 17.624300 -176.867000 -39.081100 -0.002282 -0.040193 -0.203941 0.379539 28.636900 -40.985400 0.000008 0.000006 0.002920 17.103600 -69.440500 -11.754300 -0.000006 -0.000006 -0.000788 -0.012355 -17.075700
0.000000 0.000000 0.000000 0.000000 0.000000 -0.000000 5.254660 90.796300 0.994061 91.113100 -8.343440 11.387900 15.735700 0.000005 -0.000001 85.271200 83.041100 -86.586600 8.984550 -0.406207 -0.000000 6.093810 -1.125060 -2.567790 16.377300 -0.000001 -0.000001 18.184300 -2.377970 -2.263000 6.456720 -0.000001 -0.000000 9.904320 -1.683340 1.652850 12.994200 -0.242716 4.980390 -91.760400 5.950680 -73.487100 5.348090 -0.000007 -0.000001 -53.809200 20.454200 -22.079000 24.328600 0.000019 0.000005 16.317200 24.669500 -35.045400 22.291600 -0.000001 0.000005 6.470520 5.346210 -1.264080 12.994500 -0.242716 -4.980390 88.225200 10.112600 -79.991600 -5.348130 -0.000001 -0.000004 -51.646200 28.269800 -20.214600 -24.328900 0.000322 -0.000009 4.196040 6.784450 -31.848700 -22.291500 -0.000108 -0.000004 14.041900 5.440240 -4.294210 -2.192480 -6.469440 -0.000000 -179.013000 -19.457900 4.525810 39.081100 -0.000007 -0.000012 -0.059483 0.112929 27.777100 40.985400 -0.000006 -0.000013 4.591710 4.561430 -71.553900 11.754300 -0.000000 0.000003 -0.000209 -0.001921 -16.649900 -2.192510 6.469440 -0.000001 167.469000 17.496200 -176.796000 -39.081100 -0.002282 -0.040193 -0.198070 0.365622 28.845000 -40.985400 0.000008 0.000006 0.039635 17.000100 -69.553400 -11.754300 -0.000006 -0.000006 -0.000651 -0.010322 -16.993100
